<svg xmlns="http://www.w3.org/2000/svg" width="506" height="90" viewBox="0 0 506 90" fill="none"><path d="M199.99 0H29.61C18.09 0 7.44 9.34 5.83 20.86H53.47L50.55 39.72H23.78C12.26 39.72 1.61 49.06 0 60.58H170.38C181.9 60.58 192.55 51.24 194.16 39.72H71.41L74.33 20.86H176.21C187.73 20.86 198.38 11.52 199.99 0Z" fill="white"></path><path d="M43.74 89.06L46.66 68.2H67.52C65.91 79.72 55.26 89.06 43.74 89.06Z" fill="white"></path><path d="M256.16 15.03H249.3V31.96H256.16V35.75H245.18V15.02H240.45V11.3H245.18V4.09H249.3V11.3H256.16V15.02V15.03Z" fill="white"></path><path d="M284.38 25.24H262.88C263.23 27.42 264.21 29.17 265.81 30.51C267.38 31.87 269.28 32.55 271.48 32.55C273.31 32.55 274.92 32.13 276.35 31.26C277.78 30.42 278.81 29.32 279.44 27.93H283.98C283.09 30.46 281.52 32.5 279.3 34.02C277.05 35.57 274.45 36.34 271.48 36.34C267.76 36.34 264.67 35.12 262.21 32.66C259.73 30.2 258.49 27.16 258.49 23.5C258.49 19.84 259.73 16.83 262.21 14.37C264.67 11.93 267.76 10.72 271.48 10.72C275.2 10.72 278.27 11.94 280.75 14.4C283.23 16.86 284.47 19.9 284.47 23.53C284.47 24.05 284.45 24.61 284.38 25.24ZM271.48 14.51C269.3 14.51 267.45 15.17 265.91 16.45C264.34 17.74 263.36 19.45 262.94 21.55H280.08C279.68 19.47 278.7 17.78 277.13 16.47C275.54 15.16 273.66 14.5 271.49 14.5L271.48 14.51Z" fill="white"></path><path d="M291.89 32.66C289.38 30.2 288.14 27.16 288.14 23.5C288.14 19.84 289.38 16.83 291.89 14.37C294.37 11.93 297.46 10.72 301.19 10.72C304.3 10.72 307.02 11.61 309.36 13.41C311.68 15.21 313.18 17.56 313.81 20.41H309.43C308.8 18.7 307.74 17.32 306.27 16.26C304.8 15.2 303.11 14.69 301.19 14.69C298.66 14.69 296.58 15.53 294.91 17.2C293.25 18.89 292.4 20.99 292.4 23.52C292.4 26.05 293.24 28.16 294.91 29.82C296.57 31.51 298.66 32.35 301.19 32.35C303.11 32.35 304.8 31.81 306.27 30.76C307.75 29.71 308.8 28.32 309.43 26.64H313.81C313.18 29.47 311.68 31.82 309.36 33.62C307.02 35.42 304.3 36.34 301.19 36.34C297.47 36.34 294.38 35.12 291.89 32.66Z" fill="white"></path><path d="M323.21 11.31H341.94V35.76H337.82V15.29H323.21V31.64C323.21 33.92 321.36 35.76 319.09 35.76V1.22H323.21V11.31Z" fill="white"></path><path d="M371.8 11.31V35.76H367.68V15.29H353.07V31.64C353.07 33.92 351.22 35.76 348.95 35.76V11.31H371.81H371.8Z" fill="white"></path><path d="M390.26 36.34C386.54 36.34 383.45 35.12 380.96 32.66C378.45 30.2 377.21 27.16 377.21 23.5C377.21 19.84 378.45 16.83 380.96 14.37C383.44 11.93 386.53 10.72 390.26 10.72C393.99 10.72 397.07 11.94 399.56 14.37C402.02 16.83 403.26 19.87 403.26 23.5C403.26 27.13 402.02 30.2 399.56 32.66C397.08 35.12 393.99 36.34 390.26 36.34ZM396.51 29.83C398.17 28.17 398.99 26.06 398.99 23.53C398.99 21 398.17 18.89 396.51 17.21C394.85 15.55 392.76 14.7 390.26 14.7C387.76 14.7 385.65 15.54 383.98 17.21C382.32 18.9 381.47 21 381.47 23.53C381.47 26.06 382.31 28.17 383.98 29.83C385.64 31.52 387.73 32.36 390.26 32.36C392.79 32.36 394.85 31.52 396.51 29.83Z" fill="white"></path><path d="M412.79 31.96H417.29V35.75H408.67V1.20999H412.79V31.96Z" fill="white"></path><path d="M433 36.34C429.28 36.34 426.19 35.12 423.7 32.66C421.19 30.2 419.95 27.16 419.95 23.5C419.95 19.84 421.19 16.83 423.7 14.37C426.18 11.93 429.27 10.72 433 10.72C436.73 10.72 439.81 11.94 442.3 14.37C444.76 16.83 446 19.87 446 23.5C446 27.13 444.76 30.2 442.3 32.66C439.82 35.12 436.73 36.34 433 36.34ZM439.25 29.83C440.91 28.17 441.73 26.06 441.73 23.53C441.73 21 440.91 18.89 439.25 17.21C437.59 15.55 435.5 14.7 433 14.7C430.5 14.7 428.39 15.54 426.72 17.21C425.06 18.9 424.21 21 424.21 23.53C424.21 26.06 425.05 28.17 426.72 29.83C428.38 31.52 430.47 32.36 433 32.36C435.53 32.36 437.59 31.52 439.25 29.83Z" fill="white"></path><path d="M471.69 11.31H475.81V44.87H452.3V41.08H471.69V30.73C469.63 33.92 466.23 35.86 462.14 35.86C458.65 35.86 455.75 34.67 453.43 32.28C451.09 29.91 449.92 26.92 449.92 23.31C449.92 19.7 451.09 16.75 453.43 14.34C455.75 11.93 458.65 10.73 462.14 10.73C466.17 10.73 469.63 12.72 471.69 15.91V11.32V11.31ZM469.21 29.58C470.87 27.92 471.69 25.81 471.69 23.3C471.69 20.79 470.87 18.71 469.21 17.02C467.55 15.36 465.46 14.51 462.96 14.51C460.46 14.51 458.35 15.35 456.68 17.02C455.02 18.71 454.17 20.79 454.17 23.3C454.17 25.81 455.01 27.94 456.68 29.6C458.34 31.26 460.43 32.11 462.96 32.11C465.49 32.11 467.55 31.27 469.21 29.58Z" fill="white"></path><path d="M501.22 11.31H505.83L491.1 44.87H483.28V41.08H488.22L490.66 35.67L480.03 11.31H484.71L492.98 30.82L501.22 11.31Z" fill="white"></path><path d="M280.86 53.54V77.99H276.74V57.52H263.7V77.99H259.58V57.52H246.54V73.87C246.54 76.15 244.69 77.99 242.42 77.99V53.54H280.87H280.86Z" fill="white"></path><path d="M306.32 74.24H309.53V77.99H302.62V74.83C301.1 77.15 298.22 78.58 294.91 78.58C292.38 78.58 290.27 77.81 288.61 76.24C286.92 74.69 286.08 72.75 286.08 70.41C286.08 68.07 286.92 66.19 288.61 64.63C290.27 63.08 292.38 62.31 294.91 62.31H302.19V57.53H287.69V53.55H306.31V74.25L306.32 74.24ZM300.32 73.47C301.56 72.58 302.19 71.41 302.19 69.98V66.05H295.42C293.94 66.05 292.75 66.47 291.79 67.29C290.83 68.13 290.34 69.16 290.34 70.4C290.34 71.64 290.83 72.74 291.79 73.56C292.75 74.4 293.95 74.82 295.42 74.82C297.43 74.82 299.07 74.37 300.31 73.46L300.32 73.47Z" fill="white"></path><path d="M333.89 43.45H338.01V77.99H333.89V73.33C331.83 76.59 328.41 78.58 324.38 78.58C320.89 78.58 317.99 77.36 315.67 74.9C313.33 72.44 312.16 69.4 312.16 65.74C312.16 62.08 313.33 59.07 315.67 56.61C317.99 54.17 320.89 52.96 324.38 52.96C328.41 52.96 331.83 54.93 333.89 58.18V43.45ZM331.41 72.07C333.07 70.41 333.89 68.3 333.89 65.77C333.89 63.24 333.07 61.13 331.41 59.45C329.75 57.79 327.66 56.94 325.16 56.94C322.66 56.94 320.55 57.78 318.88 59.45C317.22 61.14 316.37 63.24 316.37 65.77C316.37 68.3 317.21 70.41 318.88 72.07C320.54 73.76 322.63 74.6 325.16 74.6C327.69 74.6 329.75 73.76 331.41 72.07Z" fill="white"></path><path d="M369.32 67.48H347.82C348.17 69.66 349.15 71.41 350.75 72.75C352.32 74.11 354.22 74.79 356.42 74.79C358.25 74.79 359.86 74.37 361.29 73.5C362.72 72.66 363.75 71.56 364.38 70.17H368.92C368.03 72.7 366.46 74.74 364.24 76.26C361.99 77.81 359.39 78.58 356.42 78.58C352.7 78.58 349.61 77.36 347.15 74.9C344.67 72.44 343.43 69.4 343.43 65.74C343.43 62.08 344.67 59.07 347.15 56.61C349.61 54.17 352.7 52.96 356.42 52.96C360.14 52.96 363.21 54.18 365.69 56.64C368.17 59.1 369.41 62.14 369.41 65.77C369.41 66.29 369.39 66.85 369.32 67.48ZM356.42 56.75C354.24 56.75 352.39 57.41 350.85 58.69C349.28 59.98 348.3 61.69 347.88 63.79H365.02C364.62 61.71 363.64 60.02 362.07 58.71C360.48 57.4 358.6 56.74 356.43 56.74L356.42 56.75Z" fill="white"></path><path d="M410.82 67.48H389.32C389.67 69.66 390.65 71.41 392.25 72.75C393.82 74.11 395.72 74.79 397.92 74.79C399.75 74.79 401.36 74.37 402.79 73.5C404.22 72.66 405.25 71.56 405.88 70.17H410.42C409.53 72.7 407.96 74.74 405.74 76.26C403.49 77.81 400.89 78.58 397.92 78.58C394.2 78.58 391.11 77.36 388.65 74.9C386.17 72.44 384.93 69.4 384.93 65.74C384.93 62.08 386.17 59.07 388.65 56.61C391.11 54.17 394.2 52.96 397.92 52.96C401.64 52.96 404.71 54.18 407.19 56.64C409.67 59.1 410.91 62.14 410.91 65.77C410.91 66.29 410.89 66.85 410.82 67.48ZM397.92 56.75C395.74 56.75 393.89 57.41 392.35 58.69C390.78 59.98 389.8 61.69 389.38 63.79H406.52C406.12 61.71 405.14 60.02 403.57 58.71C401.98 57.4 400.1 56.74 397.93 56.74L397.92 56.75Z" fill="white"></path><path d="M434.45 74.24H437.66V77.99H430.75V74.83C429.23 77.15 426.35 78.58 423.04 78.58C420.51 78.58 418.4 77.81 416.74 76.24C415.05 74.69 414.21 72.75 414.21 70.41C414.21 68.07 415.05 66.19 416.74 64.63C418.4 63.08 420.51 62.31 423.04 62.31H430.32V57.53H415.82V53.55H434.44V74.25L434.45 74.24ZM428.45 73.47C429.69 72.58 430.32 71.41 430.32 69.98V66.05H423.55C422.07 66.05 420.88 66.47 419.92 67.29C418.96 68.13 418.47 69.16 418.47 70.4C418.47 71.64 418.96 72.74 419.92 73.56C420.88 74.4 422.08 74.82 423.55 74.82C425.56 74.82 427.2 74.37 428.44 73.46L428.45 73.47Z" fill="white"></path><path d="M448.41 78.58C446.04 78.58 444.08 77.85 442.51 76.38C440.94 74.93 440.14 73.15 440.14 71.04H444.4C444.4 72.09 444.8 73.01 445.57 73.73C446.34 74.46 447.3 74.83 448.43 74.83C449.56 74.83 450.44 74.53 451.19 73.89C451.94 73.26 452.31 72.48 452.31 71.57C452.31 69.58 450.72 68.2 447.51 67.38C445.33 66.79 443.62 65.95 442.36 64.8C441.1 63.68 440.46 62.08 440.46 60C440.46 57.92 441.23 56.18 442.75 54.89C444.27 53.6 446.15 52.95 448.37 52.95C450.59 52.95 452.49 53.65 454.01 55.06C455.53 56.47 456.28 58.17 456.28 60.19H452.02C452.02 59.23 451.67 58.41 450.97 57.73C450.27 57.05 449.38 56.7 448.32 56.7C447.34 56.7 446.49 57 445.79 57.61C445.06 58.22 444.71 58.94 444.71 59.76C444.71 61.7 446.3 63.06 449.51 63.83C454.24 65.07 456.61 67.53 456.61 71.16C456.61 73.36 455.84 75.14 454.27 76.5C452.7 77.88 450.76 78.56 448.39 78.56L448.41 78.58Z" fill="white"></path><path d="M479.74 53.54H484.35L469.62 87.1H461.8V83.31H466.74L469.18 77.9L458.55 53.54H463.23L471.5 73.05L479.74 53.54Z" fill="white"></path></svg>